# xmcd
#
# Track frame offsets:
#	150
#	16105
#	35097
#	48200
#	69489
#	84960
#	107240
#	123670
#	142272
#	156978
#	177212
#	191995
#
# Disc length: 2796 seconds
#
# Revision: 1
# Processed by: cddbd v1.5.2PL0 Copyright (c) Steve Scherf et al.
# Submitted via: EasyCDDAExtractor 16.0.1.1
#
DISCID=a90aea0c
DTITLE=Mike Blakely - In The Dust  
DYEAR=2001
DGENRE=Country
TTITLE0=In The Dust
TTITLE1=Mejor Que Nada
TTITLE2=Brand New Pick-'em-Up
TTITLE3=Whiskey Road
TTITLE4=Kiss And Make Up
TTITLE5=The Night Train And The Moon
TTITLE6=Wildflower Girl
TTITLE7=White Trash In Love
TTITLE8=Scootin' Boot Leather
TTITLE9=Let 'em Dance Around Us
TTITLE10=Good 'ol Boy Gone Bad
TTITLE11=Makin' Good Time
EXTD=YEAR: 2001 ID3G: 2
EXTT0=
EXTT1=
EXTT2=
EXTT3=
EXTT4=
EXTT5=
EXTT6=
EXTT7=
EXTT8=
EXTT9=
EXTT10=
EXTT11=
PLAYORDER=
